<?xml version="1.0" encoding="iso-8859-1"?>
<!-- Generator: Adobe Illustrator 21.0.0, SVG Export Plug-In . SVG Version: 6.00 Build 0)  -->
<svg xmlns="http://www.w3.org/2000/svg" xmlns:xlink="http://www.w3.org/1999/xlink" version="1.1" id="Capa_1" x="0px" y="0px" viewBox="0 0 511.88 511.88" style="enable-background:new 0 0 511.88 511.88;" xml:space="preserve" width="512" height="512">
<g>
	<path d="M168.595,461.188c-9.36,0-18.809-0.425-28.315-1.274c-49.438-4.409-93.666-18.442-133.173-42.876   c-5.845-3.618-8.481-10.752-6.401-17.3c2.095-6.533,7.661-10.781,15.22-10.43c36.768,2.256,71.327-4.146,102.748-19.438   c-31.465-11.953-53.569-34.307-67.075-67.632c-1.875-4.629-1.333-9.888,1.465-14.019c0.806-1.201,1.758-2.256,2.842-3.149   c-24.507-20.581-37.573-48.003-39.697-82.896c-0.293-4.805,1.743-9.463,5.464-12.51c2.93-2.417,6.548-3.589,10.386-3.369   c-8.672-14.517-13.638-30.688-14.824-48.428C15.87,117.36,20.748,97.292,32.13,76.505c2.344-4.263,6.606-7.134,11.44-7.69   c4.819-0.557,9.639,1.26,12.876,4.878c48.691,54.302,108.604,85.737,178.315,93.574c0.322-10.283,0.703-20.903,3.296-31.377   c9.214-37.427,36.929-67.075,74.136-79.292c38.76-12.7,80.757-4.658,112.222,21.621c1.875,1.553,2.651,1.831,2.681,1.846   c12.744-4.878,51.489-18.794,51.489-18.794c5.42-1.963,11.44-0.63,15.586,3.384c4.116,4.028,5.566,10.049,3.735,15.498   c-2.52,7.5-5.903,14.546-10.239,21.284c1.86-0.073,4.75-0.103,6.684-0.117c5.024-0.703,10.459,1.201,13.96,5.391   c5.303,6.357,4.658,16.04-1.67,21.357c-0.527,0.439-1.069,0.835-1.626,1.187l-8.599,8.291c-9.639,9.258-20.277,18.516-29.535,28.14   c-1.729,1.787-2.769,3.853-2.93,4.497c-0.425,35.068-6.885,69.653-19.131,102.173C401.285,387.902,292.433,461.188,168.595,461.188   z M430.787,267.067h0.293H430.787z"/>
</g>















</svg>
