<?xml version="1.0" encoding="iso-8859-1"?>
<!-- Generator: Adobe Illustrator 21.0.0, SVG Export Plug-In . SVG Version: 6.00 Build 0)  -->
<svg xmlns="http://www.w3.org/2000/svg" xmlns:xlink="http://www.w3.org/1999/xlink" version="1.1" id="Capa_1" x="0px" y="0px" viewBox="0 0 512 512" style="enable-background:new 0 0 512 512;" xml:space="preserve" width="512" height="512">
<g>
	<path d="M437,61H75C33.6,61,0,94.6,0,136v240c0,41.4,33.6,75,75,75h362c41.4,0,75-33.6,75-75V136C512,94.6,478.4,61,437,61z    M338.5,268.9l-135,77.699c-4.816,2.41-10.179,2.412-15,0c-4.501-2.699-7.5-7.798-7.5-13.2V181c0-5.4,2.701-10.201,7.5-12.9   c4.501-2.701,10.201-2.701,14.7-0.3l135,75c4.801,2.699,7.8,7.8,7.8,13.2S343.299,266.199,338.5,268.9z M211,307.599l89.399-51.299   L211,206.499V307.599z"/>
</g>















</svg>
